<?xml version="1.0" standalone="no"?>
<!DOCTYPE svg PUBLIC "-//W3C//DTD SVG 20010904//EN"
 "http://www.w3.org/TR/2001/REC-SVG-20010904/DTD/svg10.dtd">
<svg version="1.0" xmlns="http://www.w3.org/2000/svg"
 width="562.000000pt" height="106.000000pt" viewBox="0 0 562.000000 106.000000"
 preserveAspectRatio="xMidYMid meet">
<metadata>
Created by potrace 1.16, written by Peter Selinger 2001-2019
</metadata>
<g transform="translate(0.000000,106.000000) scale(0.100000,-0.100000)"
fill="#000000" stroke="none">
<path d="M3137 1049 c-29 -17 -49 -68 -43 -105 9 -44 57 -84 103 -84 83 0 127
114 67 174 -20 20 -37 26 -68 26 -22 0 -49 -5 -59 -11z"/>
<path d="M0 490 l0 -490 121 0 121 0 164 96 c90 53 166 100 169 104 9 14 -9
26 -230 155 l-210 122 -3 71 -3 71 343 -200 c189 -110 346 -203 350 -207 4 -4
-70 -51 -163 -106 -93 -54 -169 -100 -169 -102 0 -2 108 -4 240 -4 l240 0 0
490 0 490 -122 -1 -123 0 -165 -97 c-91 -54 -165 -104 -165 -112 0 -8 99 -72
223 -143 l222 -130 0 -69 0 -69 -58 33 c-231 132 -642 374 -642 378 0 3 77 49
170 104 94 54 170 100 170 102 0 2 -108 4 -240 4 l-240 0 0 -490z"/>
<path d="M2295 961 l-60 -18 -3 -81 -3 -82 -74 0 -75 0 0 -70 0 -70 75 0 75 0
0 -163 c0 -239 27 -314 133 -373 45 -25 63 -29 132 -29 54 0 96 6 130 19 63
24 145 77 145 93 0 13 -58 113 -66 113 -2 0 -23 -14 -46 -30 -79 -58 -176 -71
-222 -31 -40 35 -46 63 -46 236 l0 165 165 0 165 0 0 70 0 70 -165 0 -165 0 0
100 c0 114 5 110 -95 81z"/>
<path d="M3695 961 l-60 -18 -3 -81 -3 -82 -74 0 -75 0 0 -70 0 -70 74 0 74 0
4 -187 c5 -208 12 -240 71 -301 57 -60 101 -77 197 -76 97 1 150 17 227 70
l53 36 -23 37 c-12 21 -29 48 -37 60 l-15 23 -52 -35 c-71 -47 -139 -63 -186
-43 -68 28 -77 58 -77 249 l0 167 170 0 170 0 0 70 0 70 -170 0 -170 0 0 100
c0 114 5 110 -95 81z"/>
<path d="M5075 961 l-60 -18 -3 -431 -2 -432 75 0 75 0 0 215 c0 226 3 247 49
299 48 55 165 74 214 36 15 -12 31 -38 37 -58 5 -20 10 -139 10 -264 l0 -228
76 0 75 0 -3 278 -3 277 -28 50 c-34 62 -77 92 -152 106 -68 12 -166 -1 -226
-32 -21 -10 -41 -19 -44 -19 -3 0 -5 54 -5 120 0 90 -3 120 -12 119 -7 0 -40
-9 -73 -18z"/>
<path d="M1652 789 c-91 -15 -167 -67 -191 -132 -16 -43 -13 -118 7 -154 34
-63 83 -87 285 -138 77 -20 117 -47 117 -78 0 -32 -11 -44 -53 -62 -78 -32
-199 -9 -278 55 -21 16 -40 30 -42 30 -11 0 -78 -124 -73 -135 7 -20 140 -82
203 -96 78 -16 198 -6 259 20 94 42 134 103 134 203 0 105 -55 159 -202 197
-196 52 -218 62 -218 97 0 18 53 50 97 59 48 9 138 -11 201 -45 l53 -28 29 59
c17 32 30 62 30 67 0 18 -137 72 -205 82 -79 11 -80 11 -153 -1z"/>
<path d="M4517 790 c-116 -20 -207 -93 -249 -199 -31 -81 -31 -232 2 -316 34
-90 107 -157 200 -186 130 -39 295 -14 399 61 23 17 41 34 41 40 0 5 -15 34
-34 65 l-33 55 -24 -19 c-52 -40 -115 -64 -181 -69 -59 -4 -75 -1 -123 22 -92
46 -133 149 -105 266 31 127 160 172 337 115 42 -13 78 -23 79 -22 1 1 14 30
28 65 l25 63 -46 21 c-50 22 -178 48 -233 46 -19 0 -57 -4 -83 -8z"/>
<path d="M2900 710 l0 -70 110 0 110 0 0 -205 0 -205 -110 0 -110 0 0 -75 0
-75 295 0 295 0 0 75 0 75 -110 0 -110 0 0 275 0 275 -185 0 -185 0 0 -70z"/>
</g>
</svg>
